<svg width="24" height="24" viewBox="0 0 16 16" shape-rendering="crispEdges" xmlns="http://www.w3.org/2000/svg">
  <g fill="currentColor">
    <rect x="3" y="0" width="1" height="1"/><rect x="12" y="0" width="1" height="1"/>
    <rect x="4" y="1" width="1" height="1"/><rect x="11" y="1" width="1" height="1"/>
    <rect x="3" y="2" width="10" height="1"/>
    <rect x="2" y="3" width="2" height="1"/><rect x="5" y="3" width="1" height="1"/><rect x="10" y="3" width="1" height="1"/><rect x="12" y="3" width="2" height="1"/>
    <rect x="1" y="4" width="14" height="1"/>
    <rect x="1" y="5" width="14" height="1"/>
    <rect x="1" y="6" width="3" height="1"/><rect x="6" y="6" width="4" height="1"/><rect x="12" y="6" width="3" height="1"/>
    <rect x="2" y="7" width="1" height="1"/><rect x="13" y="7" width="1" height="1"/>
    <rect x="4" y="8" width="2" height="1"/><rect x="10" y="8" width="2" height="1"/>
  </g>
</svg>
